<svg id="visual" viewBox="0 0 900 600" width="900" height="600" xmlns="http://www.w3.org/2000/svg" xmlns:xlink="http://www.w3.org/1999/xlink" version="1.1"><path d="M0 13L90 13L90 31L180 31L180 85L270 85L270 127L360 127L360 109L450 109L450 115L540 115L540 109L630 109L630 37L720 37L720 73L810 73L810 91L900 91L900 13L900 0L900 0L810 0L810 0L720 0L720 0L630 0L630 0L540 0L540 0L450 0L450 0L360 0L360 0L270 0L270 0L180 0L180 0L90 0L90 0L0 0Z" fill="#b667f1"></path><path d="M0 235L90 235L90 379L180 379L180 301L270 301L270 169L360 169L360 175L450 175L450 349L540 349L540 247L630 247L630 175L720 175L720 151L810 151L810 139L900 139L900 145L900 11L900 89L810 89L810 71L720 71L720 35L630 35L630 107L540 107L540 113L450 113L450 107L360 107L360 125L270 125L270 83L180 83L180 29L90 29L90 11L0 11Z" fill="#ac5ced"></path><path d="M0 385L90 385L90 439L180 439L180 373L270 373L270 277L360 277L360 247L450 247L450 517L540 517L540 331L630 331L630 217L720 217L720 205L810 205L810 235L900 235L900 289L900 143L900 137L810 137L810 149L720 149L720 173L630 173L630 245L540 245L540 347L450 347L450 173L360 173L360 167L270 167L270 299L180 299L180 377L90 377L90 233L0 233Z" fill="#a150e9"></path><path d="M0 475L90 475L90 553L180 553L180 433L270 433L270 385L360 385L360 343L450 343L450 559L540 559L540 433L630 433L630 373L720 373L720 301L810 301L810 265L900 265L900 457L900 287L900 233L810 233L810 203L720 203L720 215L630 215L630 329L540 329L540 515L450 515L450 245L360 245L360 275L270 275L270 371L180 371L180 437L90 437L90 383L0 383Z" fill="#9645e5"></path><path d="M0 601L90 601L90 601L180 601L180 601L270 601L270 601L360 601L360 601L450 601L450 601L540 601L540 601L630 601L630 601L720 601L720 601L810 601L810 601L900 601L900 601L900 455L900 263L810 263L810 299L720 299L720 371L630 371L630 431L540 431L540 557L450 557L450 341L360 341L360 383L270 383L270 431L180 431L180 551L90 551L90 473L0 473Z" fill="#8a39e1"></path></svg>